<?xml version="1.0" encoding="UTF-8" standalone="no"?>
<!-- Created with Inkscape (http://www.inkscape.org/) -->

<svg
   xmlns:dc="http://purl.org/dc/elements/1.1/"
   xmlns:cc="http://creativecommons.org/ns#"
   xmlns:rdf="http://www.w3.org/1999/02/22-rdf-syntax-ns#"
   xmlns:svg="http://www.w3.org/2000/svg"
   xmlns="http://www.w3.org/2000/svg"
   xmlns:sodipodi="http://sodipodi.sourceforge.net/DTD/sodipodi-0.dtd"
   xmlns:inkscape="http://www.inkscape.org/namespaces/inkscape"
   width="360"
   height="80"
   viewBox="0 0 360.00001 80"
   id="svg3336"
   version="1.1"
   inkscape:version="0.91 r13725"
   sodipodi:docname="logo.svg">
  <defs
     id="defs3338" />
  <sodipodi:namedview
     id="base"
     pagecolor="#ffffff"
     bordercolor="#666666"
     borderopacity="1.0"
     inkscape:pageopacity="0.0"
     inkscape:pageshadow="2"
     inkscape:zoom="1.979899"
     inkscape:cx="200.45952"
     inkscape:cy="-34.196762"
     inkscape:document-units="px"
     inkscape:current-layer="layer1"
     showgrid="true"
     inkscape:snap-bbox="true"
     inkscape:bbox-paths="true"
     inkscape:bbox-nodes="true"
     inkscape:snap-bbox-edge-midpoints="false"
     inkscape:object-paths="false"
     inkscape:window-width="1920"
     inkscape:window-height="1027"
     inkscape:window-x="-8"
     inkscape:window-y="-8"
     inkscape:window-maximized="1"
     inkscape:object-nodes="true"
     units="px">
    <inkscape:grid
       type="xygrid"
       id="grid3346" />
  </sodipodi:namedview>
  <metadata
     id="metadata3341">
    <rdf:RDF>
      <cc:Work
         rdf:about="">
        <dc:format>image/svg+xml</dc:format>
        <dc:type
           rdf:resource="http://purl.org/dc/dcmitype/StillImage" />
        <dc:title></dc:title>
      </cc:Work>
    </rdf:RDF>
  </metadata>
  <g
     inkscape:label="Layer 1"
     inkscape:groupmode="layer"
     id="layer1"
     transform="translate(0,-972.36221)">
    <path
       style="font-style:normal;font-variant:normal;font-weight:normal;font-stretch:normal;font-size:30.37109566px;line-height:125%;font-family:Gidolinya;-inkscape-font-specification:Gidolinya;letter-spacing:0px;word-spacing:0px;fill:#2c2825;fill-opacity:1;stroke:none;stroke-width:1px;stroke-linecap:butt;stroke-linejoin:miter;stroke-opacity:1"
       d="m 157.87305,1002.8388 0,20.2558 2.12695,0 0,-20.2558 -2.12695,0 z m -143.712894,0.029 c -0.728906,0 -1.943066,0 -2.945312,0.8515 C 9.9999999,1004.7826 10,1006.1173 10,1007.5751 l 0,10.8125 c 0,1.4578 -10e-8,2.7944 1.214844,3.8574 1.002246,0.8504 2.216406,0.8496 2.945312,0.8496 1.974121,0 5.043067,-10e-5 7.138672,-2.0957 2.065235,-2.0652 2.064453,-4.9197 2.064453,-8.0175 0,-3.0979 7.82e-4,-5.9524 -2.064453,-8.0176 -2.095605,-2.0956 -5.164551,-2.0957 -7.138672,-2.0957 z m 17.929688,0 c -1.336328,0 -2.552442,0 -3.554688,0.8515 -1.214844,1.0023 -1.214844,2.3673 -1.214844,3.8555 l 0,10.8125 c 0,1.4578 0,2.7944 1.214844,3.8574 1.002246,0.8504 2.21836,0.8496 3.554688,0.8496 l 0.363281,0 c 2.247461,0 4.373633,0 6.013672,-1.6386 0.941504,-0.9415 1.609375,-2.3705 1.609375,-4.1016 0,-2.2171 -1.062695,-3.917 -2.824219,-4.8281 1.427442,-0.8808 2.216797,-2.3681 2.216797,-4.2207 0,-1.7312 -0.698144,-3.2801 -1.943359,-4.252 -1.518555,-1.1845 -3.218653,-1.1855 -5.375,-1.1855 l -0.06055,0 z m 16.726562,0 c -1.336328,0 -2.550488,0 -3.552734,0.8515 -1.214844,1.063 -1.214844,2.3977 -1.214844,3.8555 l 0,15.5195 2.248047,0 0,-9.3847 7.167969,0 0,-2.125 -7.167969,0 0,-4.0098 c 0,-1.2452 -6.84e-4,-1.9118 0.515625,-2.3066 0.364453,-0.2734 0.880176,-0.2735 2.003906,-0.2735 l 6.166016,0 0,-2.1269 -6.166016,0 z m 67.250004,0 0,2.1269 5.70898,0 0,18.0996 2.24805,0 0,-18.0996 5.70898,0 0,-2.1269 -13.66601,0 z m -101.906254,2.1269 c 1.700782,0 4.070606,-0 5.498047,1.4258 1.457813,1.4578 1.457031,3.6449 1.457031,6.5606 0,2.9156 7.82e-4,5.1027 -1.457031,6.5605 -1.427441,1.4274 -3.797265,1.4277 -5.498047,1.4277 -0.516308,0 -1.032031,-10e-5 -1.396484,-0.2734 -0.516309,-0.3948 -0.515625,-1.0634 -0.515625,-2.3086 l 0,-10.8125 c 0,-1.2452 -6.84e-4,-1.9118 0.515625,-2.3066 0.364453,-0.2734 0.880176,-0.2735 1.396484,-0.2735 z m 17.929688,0 0.06055,0 c 2.065234,0 3.461035,-0 4.341797,1.0918 0.516308,0.6378 0.730468,1.4291 0.730468,2.2188 0,0.7896 -0.21416,1.579 -0.730468,2.2168 -0.880762,1.0933 -2.276563,1.0937 -4.341797,1.0937 l -2.582032,0 0,-4.041 c 0,-1.2452 -6.83e-4,-1.9118 0.515625,-2.3066 0.364454,-0.2734 0.882129,-0.2735 2.00586,-0.2735 z m 30.283203,3.4004 c -2.156348,0 -3.916797,0.9724 -4.888672,2.582 -0.880762,1.4579 -0.880859,3.1283 -0.880859,4.8594 0,1.7312 9.7e-5,3.4016 0.880859,4.8594 0.971875,1.6097 2.732324,2.582 4.888672,2.582 2.156348,0 3.91875,-0.9723 4.890625,-2.582 0.880762,-1.4578 0.880859,-3.1282 0.880859,-4.8594 0,-1.7311 -9.7e-5,-3.4015 -0.880859,-4.8594 -0.971875,-1.6096 -2.734277,-2.582 -4.890625,-2.582 z m 14.386719,0 c -1.397071,0 -3.157325,0.4252 -4.341797,1.8223 -1.214844,1.4274 -1.214844,2.8544 -1.214844,5.3144 l 0,7.5625 2.125,0 0,-7.5625 c 0,-1.9133 -3.91e-4,-3.1886 0.728516,-4.039 0.57705,-0.6986 1.609765,-1.0918 2.703125,-1.0918 0.516308,0 1.002539,0.09 1.427734,0.2422 l 0.638672,-1.9141 c -0.607422,-0.2126 -1.307129,-0.334 -2.066406,-0.334 z m 9.488281,0 c -1.822266,0 -3.281152,0.6998 -4.222656,1.7324 -1.457813,1.6401 -1.457032,3.7655 -1.457032,5.6485 0,2.0652 -0.0015,4.0689 1.365235,5.709 0.880762,1.0629 2.309668,1.7929 4.101562,1.7929 1.488184,0 2.824512,-0.6994 3.644532,-1.8535 l 0,0.3047 c 0,1.8526 -0.0016,2.9463 -0.730469,3.8574 -0.577051,0.7289 -1.578223,1.2442 -3.066407,1.2442 -1.275586,0 -2.550488,-0.3635 -3.552734,-0.9102 l -0.880859,1.8223 c 1.336328,0.7289 2.94541,1.0918 4.433593,1.0918 2.004493,0 3.553516,-0.6988 4.525391,-1.7618 1.397071,-1.5185 1.396485,-3.1874 1.396485,-5.3437 l 0,-6.1973 c 0,-2.46 0,-3.887 -1.214844,-5.3144 -1.184473,-1.3971 -2.944727,-1.8223 -4.341797,-1.8223 z m 14.660153,0 c -2.156345,0 -3.979294,0.7896 -4.951169,2.1563 -1.093359,1.5185 -1.09375,2.9162 -1.09375,5.2851 0,1.9741 1.95e-4,3.7957 1.154297,5.375 0.971875,1.306 2.642676,2.0664 4.738282,2.0664 1.5793,0 3.1585,-0.3355 4.58594,-1.0644 l -0.88086,-1.8223 c -1.09336,0.5771 -2.39912,0.8809 -3.70508,0.8809 -1.457813,0 -2.429688,-0.4554 -3.03711,-1.2754 -0.698535,-0.9415 -0.699219,-2.7319 -0.699219,-3.5215 l 2.794922,0 c 2.156347,0 3.462697,-10e-4 4.738277,-0.9121 0.8504,-0.6074 1.51758,-1.6403 1.51758,-2.9766 -0.0304,-1.1845 -0.60644,-2.3071 -1.51758,-3.0664 -0.91113,-0.7289 -2.12597,-1.125 -3.64453,-1.125 z m 33.53711,0 c -2.15635,0 -3.91679,0.9724 -4.88867,2.582 -0.88076,1.4579 -0.88086,3.1283 -0.88086,4.8594 0,1.7312 1e-4,3.4016 0.88086,4.8594 0.97188,1.6097 2.73232,2.582 4.88867,2.582 2.15635,0 3.91875,-0.9723 4.89063,-2.582 0.88076,-1.4578 0.88086,-3.1282 0.88086,-4.8594 0,-1.7311 -1e-4,-3.4015 -0.88086,-4.8594 -0.97188,-1.6096 -2.73428,-2.582 -4.89063,-2.582 z m 14.29688,0 c -2.15635,0 -3.91875,0.9724 -4.89063,2.582 -0.88076,1.4579 -0.88086,3.1283 -0.88086,4.8594 0,1.7312 1e-4,3.4016 0.88086,4.8594 0.97188,1.6097 2.73428,2.582 4.89063,2.582 2.15635,0 3.91679,-0.9723 4.88867,-2.582 0.88076,-1.4578 0.88086,-3.1282 0.88086,-4.8594 0,-1.7311 -1e-4,-3.4015 -0.88086,-4.8594 -0.97188,-1.6096 -2.73232,-2.582 -4.88867,-2.582 z m -86.369143,2.0059 c 1.336328,0 2.36914,0.5459 2.976562,1.457 0.668164,1.0022 0.667969,2.4296 0.667969,3.9785 0,1.5489 1.95e-4,2.9763 -0.667969,3.9785 -0.607422,0.9112 -1.640234,1.4571 -2.976562,1.4571 -1.336328,0 -2.369141,-0.5459 -2.976563,-1.4571 -0.668164,-1.0022 -0.667968,-2.4296 -0.667968,-3.9785 0,-1.5489 -1.96e-4,-2.9763 0.667968,-3.9785 0.607422,-0.9111 1.640235,-1.457 2.976563,-1.457 z m 23.875,0 c 1.093359,0 2.124121,0.3932 2.701172,1.0918 0.728906,0.8504 0.730469,2.1266 0.730469,3.7363 0,2.2475 -9.77e-4,3.9175 -0.91211,4.9805 -0.54668,0.6378 -1.427929,1.0625 -2.582031,1.0625 -1.154102,0 -2.033399,-0.4247 -2.580078,-1.0625 -0.911133,-1.063 -0.91211,-2.7328 -0.91211,-4.4336 0,-1.7312 7.82e-4,-3.2797 0.972657,-4.3731 0.546679,-0.6074 1.4583,-1.0019 2.582031,-1.0019 z m 14.660153,0 c 0.94151,0 1.72979,0.2115 2.2461,0.6367 0.45556,0.3644 0.76064,0.9718 0.79101,1.5488 0,0.6986 -0.33564,1.2158 -0.73047,1.5196 -0.63779,0.4859 -1.48701,0.4843 -3.400387,0.4843 l -2.794922,0 c 0,-0.6074 4.88e-4,-2.1251 0.759766,-3.0058 0.668164,-0.7897 1.762207,-1.1836 3.128903,-1.1836 z m 33.53711,0 c 1.33633,0 2.36914,0.5459 2.97657,1.457 0.66816,1.0022 0.66796,2.4296 0.66796,3.9785 0,1.5489 2e-4,2.9763 -0.66796,3.9785 -0.60743,0.9112 -1.64024,1.4571 -2.97657,1.4571 -1.33633,0 -2.36914,-0.5459 -2.97656,-1.4571 -0.66816,-1.0022 -0.66797,-2.4296 -0.66797,-3.9785 0,-1.5489 -1.9e-4,-2.9763 0.66797,-3.9785 0.60742,-0.9111 1.64023,-1.457 2.97656,-1.457 z m 14.29688,0 c 1.33633,0 2.36718,0.5459 2.97461,1.457 0.66816,1.0022 0.66992,2.4296 0.66992,3.9785 0,1.5489 -0.002,2.9763 -0.66992,3.9785 -0.60743,0.9112 -1.63828,1.4571 -2.97461,1.4571 -1.33633,0 -2.36914,-0.5459 -2.97657,-1.4571 -0.66816,-1.0022 -0.66796,-2.4296 -0.66796,-3.9785 0,-1.5489 -2e-4,-2.9763 0.66796,-3.9785 0.60743,-0.9111 1.64024,-1.457 2.97657,-1.457 z m -119.173831,3.3398 2.884766,0 c 2.095606,0 3.462598,-5e-4 4.464844,1.0625 0.516308,0.5467 0.912109,1.4574 0.912109,2.5508 0,1.0934 -0.395801,2.0061 -0.912109,2.5527 -1.002246,1.063 -2.369238,1.0625 -4.464844,1.0625 l -0.363281,0 c -1.123731,0 -1.641406,-10e-5 -2.00586,-0.2734 -0.516308,-0.3948 -0.515625,-1.0634 -0.515625,-2.3086 l 0,-4.6465 z"
       id="text3348"
       inkscape:connector-curvature="0" />
    <path
       style="font-style:normal;font-variant:normal;font-weight:normal;font-stretch:normal;font-size:12.5px;line-height:125%;font-family:Gidolinya;-inkscape-font-specification:Gidolinya;letter-spacing:0px;word-spacing:0px;fill:#9fa5a3;fill-opacity:1;stroke:none;stroke-width:1px;stroke-linecap:butt;stroke-linejoin:miter;stroke-opacity:1"
       d="m 111.51172,1024.6005 c -1.55,0 -2.47461,0.9492 -2.47461,2.1367 0,0.6375 0.34844,1.2379 0.77344,1.5879 0.5125,0.425 1.00039,0.5617 1.46289,0.6992 0.575,0.175 1.08828,0.3258 1.42578,0.6133 0.35,0.2875 0.54883,0.7238 0.54883,1.1113 0,0.675 -0.48633,1.4512 -1.73633,1.4512 -0.7,0 -1.42539,-0.2262 -1.96289,-0.7012 l -0.58789,0.6758 c 0.7,0.6 1.62578,0.9004 2.55078,0.9004 1.8,0 2.66211,-1.1887 2.66211,-2.3262 0,-0.725 -0.38672,-1.3613 -0.82422,-1.7363 -0.525,-0.45 -1.1375,-0.6246 -1.6875,-0.7871 -0.4125,-0.125 -0.90117,-0.2754 -1.20117,-0.5254 -0.3125,-0.25 -0.5,-0.6133 -0.5,-0.9883 0,-0.6 0.43828,-1.2363 1.55078,-1.2363 0.7,0 1.35039,0.2367 1.77539,0.5742 l 0.54883,-0.6992 c -0.6,-0.4625 -1.43672,-0.75 -2.32422,-0.75 z m 15.42969,0 c -1.55,0 -2.47461,0.9492 -2.47461,2.1367 0,0.6375 0.34843,1.2379 0.77343,1.5879 0.5125,0.425 1.0004,0.5617 1.46289,0.6992 0.57501,0.175 1.08829,0.3258 1.42579,0.6133 0.35,0.2875 0.54882,0.7238 0.54882,1.1113 0,0.675 -0.48632,1.4512 -1.73632,1.4512 -0.7,0 -1.42539,-0.2262 -1.96289,-0.7012 l -0.5879,0.6758 c 0.70001,0.6 1.62579,0.9004 2.55079,0.9004 1.8,0 2.66211,-1.1887 2.66211,-2.3262 0,-0.725 -0.38672,-1.3613 -0.82422,-1.7363 -0.525,-0.45 -1.1375,-0.6246 -1.6875,-0.7871 -0.4125,-0.125 -0.90117,-0.2754 -1.20118,-0.5254 -0.3125,-0.25 -0.5,-0.6133 -0.5,-0.9883 0,-0.6 0.43829,-1.2363 1.55079,-1.2363 0.7,0 1.35039,0.2367 1.77539,0.5742 l 0.54882,-0.6992 c -0.59999,-0.4625 -1.43671,-0.75 -2.32421,-0.75 z m 54.26757,0.062 0,8.3359 0.875,0 0,-8.3359 -0.875,0 z M 95,1024.6747 l 0,5.4258 c 0,0.9375 7.81e-4,1.5609 0.425781,2.1484 0.35,0.4875 0.974219,0.8262 1.761719,0.8262 0.75,0 1.350781,-0.3 1.738281,-0.6875 0.7,-0.7125 0.699219,-1.5871 0.699219,-2.3496 0,-0.85 0,-1.6766 -0.5625,-2.3516 -0.3625,-0.4375 -0.95,-0.7363 -1.6875,-0.7363 -0.6125,0 -1.1625,0.2867 -1.5,0.7617 l 0,-3.0371 -0.875,0 z m 20.73438,0 0,8.3242 0.92382,0 0,-8.3242 -0.92382,0 z m 2.43164,0 2.23828,4.0996 -2.30078,4.2246 1.0371,0 1.8379,-3.4746 1.83789,3.4746 1.03711,0 -2.30079,-4.2246 2.23829,-4.0996 -1.03711,0 -1.77539,3.3496 -1.7754,-3.3496 -1.0371,0 z m 12.99804,0 0,8.3242 0.92383,0 0,-8.3242 -0.92383,0 z m 4.51953,0 c -0.3,0 -0.80039,-4e-4 -1.21289,0.3496 -0.5,0.4375 -0.5,0.9879 -0.5,1.5879 l 0,4.4492 c 0,0.6 0,1.1504 0.5,1.5879 0.4125,0.35 0.91289,0.3496 1.21289,0.3496 0.8125,0 2.075,0 2.9375,-0.8613 0.85,-0.85 0.84961,-2.0258 0.84961,-3.3008 0,-1.275 3.9e-4,-2.4488 -0.84961,-3.2988 -0.8625,-0.8625 -2.125,-0.8633 -2.9375,-0.8633 z m 7.37891,0 c -0.55,0 -1.05039,-4e-4 -1.46289,0.3496 -0.5,0.4375 -0.5,0.9879 -0.5,1.5879 l 0,4.4492 c 0,0.6 0,1.1504 0.5,1.5879 0.4125,0.35 0.91289,0.3496 1.46289,0.3496 l 2.66211,0 0,-0.875 -2.66211,0 c -0.4625,0 -0.67617,0 -0.82617,-0.1113 -0.2125,-0.1625 -0.21094,-0.4387 -0.21094,-0.9512 l 0,-1.9121 2.94922,-0.012 0,-0.875 -2.94922,0.012 0,-1.6621 c 0,-0.5125 -0.002,-0.7867 0.21094,-0.9492 0.15,-0.1125 0.36367,-0.1133 0.82617,-0.1133 l 2.66211,0 0,-0.875 -2.66211,0 z m 6.12109,0 c -0.3,0 -0.79843,-4e-4 -1.21093,0.3496 -0.5,0.4375 -0.5,0.9879 -0.5,1.5879 l 0,4.4492 c 0,0.6 0,1.1504 0.5,1.5879 0.4125,0.35 0.91093,0.3496 1.21093,0.3496 0.8125,0 2.075,0 2.9375,-0.8613 0.85,-0.85 0.85157,-2.0258 0.85157,-3.3008 0,-1.275 -0.002,-2.4488 -0.85157,-3.2988 -0.8625,-0.8625 -2.125,-0.8633 -2.9375,-0.8633 z m 10.25391,0 c -0.3,0 -0.79844,-4e-4 -1.21094,0.3496 -0.5,0.4375 -0.5,0.9879 -0.5,1.5879 l 0,4.4492 c 0,0.6 0,1.1504 0.5,1.5879 0.4125,0.35 0.91094,0.3496 1.21094,0.3496 0.8125,0 2.075,0 2.9375,-0.8613 0.85,-0.85 0.85156,-2.0258 0.85156,-3.3008 0,-1.275 -0.002,-2.4488 -0.85156,-3.2988 -0.8625,-0.8625 -2.125,-0.8633 -2.9375,-0.8633 z m -23.75391,0.875 c 0.7,0 1.67422,4e-4 2.26172,0.5879 0.6,0.6 0.59961,1.4992 0.59961,2.6992 0,1.2 3.9e-4,2.1012 -0.59961,2.7012 -0.5875,0.5875 -1.56172,0.5859 -2.26172,0.5859 -0.2125,0 -0.42617,0 -0.57617,-0.1113 -0.2125,-0.1625 -0.21094,-0.4387 -0.21094,-0.9512 l 0,-4.4492 c 0,-0.5125 -0.002,-0.7867 0.21094,-0.9492 0.15,-0.1125 0.36367,-0.1133 0.57617,-0.1133 z m 13.5,0 c 0.7,0 1.67618,4e-4 2.26368,0.5879 0.6,0.6 0.5996,1.4992 0.59961,2.6992 0,1.2 3.9e-4,2.1012 -0.59961,2.7012 -0.5875,0.5875 -1.56368,0.5859 -2.26368,0.5859 -0.2125,0 -0.42421,0 -0.57421,-0.1113 -0.2125,-0.1625 -0.2129,-0.4387 -0.2129,-0.9512 l 0,-4.4492 c 0,-0.5125 4e-4,-0.7867 0.2129,-0.9492 0.15,-0.1125 0.36171,-0.1133 0.57421,-0.1133 z m 10.25391,0 c 0.7,0 1.67617,4e-4 2.26367,0.5879 0.6,0.6 0.59961,1.4992 0.59961,2.6992 0,1.2 3.9e-4,2.1012 -0.59961,2.7012 -0.5875,0.5875 -1.56367,0.5859 -2.26367,0.5859 -0.2125,0 -0.42422,0 -0.57422,-0.1113 -0.2125,-0.1625 -0.21289,-0.4387 -0.21289,-0.9512 l 0,-4.4492 c 0,-0.5125 3.9e-4,-0.7867 0.21289,-0.9492 0.15,-0.1125 0.36172,-0.1133 0.57422,-0.1133 z m 56.13281,0.062 0,5.2617 c 0,0.7125 -3.9e-4,1.1875 0.34961,1.625 0.275,0.35 0.73711,0.5762 1.28711,0.5762 0.45,0 0.85,-0.1512 1.1875,-0.3262 l -0.375,-0.7363 c -0.2875,0.15 -0.575,0.2363 -0.8125,0.2363 -0.275,0 -0.46094,-0.1 -0.58594,-0.25 -0.175,-0.225 -0.17578,-0.45 -0.17578,-1.125 l 0,-3.0742 1.5,0 0,-0.7754 -1.5,0 0,-1.4121 -0.875,0 z m -48.60351,1.3379 c -0.8875,0 -1.63711,0.3242 -2.03711,0.8867 -0.45,0.625 -0.44922,1.2008 -0.44922,2.1758 0,0.8125 -3.9e-4,1.5629 0.47461,2.2129 0.4,0.5375 1.08672,0.8496 1.94922,0.8496 0.65,0 1.30117,-0.1375 1.88867,-0.4375 l -0.36328,-0.75 c -0.45,0.2375 -0.98789,0.3613 -1.52539,0.3613 -0.6,0 -1,-0.1859 -1.25,-0.5234 -0.2875,-0.3875 -0.28711,-1.1262 -0.28711,-1.4512 l 1.15039,0 c 0.8875,0 1.42422,0 1.94922,-0.375 0.35,-0.25 0.625,-0.6746 0.625,-1.2246 -0.0125,-0.4875 -0.25,-0.9492 -0.625,-1.2617 -0.375,-0.3 -0.875,-0.4629 -1.5,-0.4629 z m 10.8164,0 c -0.8875,0 -1.63906,0.3242 -2.03906,0.8867 -0.45,0.625 -0.44922,1.2008 -0.44922,2.1758 0,0.8125 -3.9e-4,1.5629 0.47461,2.2129 0.4,0.5375 1.08867,0.8496 1.95117,0.8496 0.65,0 1.29922,-0.1375 1.88672,-0.4375 l -0.36328,-0.75 c -0.45,0.2375 -0.98594,0.3613 -1.52344,0.3613 -0.6,0 -1,-0.1859 -1.25,-0.5234 -0.2875,-0.3875 -0.28906,-1.1262 -0.28906,-1.4512 l 1.15039,0 c 0.8875,0 1.42617,0 1.95117,-0.375 0.35,-0.25 0.625,-0.6746 0.625,-1.2246 -0.0125,-0.4875 -0.25,-0.9492 -0.625,-1.2617 -0.375,-0.3 -0.875,-0.4629 -1.5,-0.4629 z m 8.04102,0 c -0.8875,0 -1.61172,0.4 -2.01172,1.0625 -0.3625,0.6 -0.36328,1.2875 -0.36328,2 0,0.7125 7.8e-4,1.4 0.36328,2 0.4,0.6625 1.12422,1.0625 2.01172,1.0625 0.8875,0 1.61172,-0.4 2.01172,-1.0625 0.3625,-0.6 0.36328,-1.2875 0.36328,-2 0,-0.7125 -7.8e-4,-1.4 -0.36328,-2 -0.4,-0.6625 -1.12422,-1.0625 -2.01172,-1.0625 z m 5.92187,0 c -0.575,0 -1.30156,0.175 -1.78906,0.75 -0.5,0.5875 -0.5,1.175 -0.5,2.1875 l 0,5.4004 0.875,0 0,-2.9766 c 0.3375,0.475 0.8875,0.7637 1.5,0.7637 0.7375,0 1.325,-0.3008 1.6875,-0.7383 0.5625,-0.675 0.5625,-1.4996 0.5625,-2.3496 0,-0.775 3.9e-4,-1.6492 -0.59961,-2.3242 -0.3875,-0.425 -0.98633,-0.7129 -1.73633,-0.7129 z m 5.65821,0 c -0.5875,0 -1.1,0.2121 -1.4375,0.5371 -0.625,0.6 -0.625,1.375 -0.625,2.3125 l 0,3.1992 0.875,0 0,-3.1992 c 0,-0.825 0,-1.3883 0.375,-1.7383 0.1875,-0.175 0.475,-0.2871 0.8125,-0.2871 0.3375,0 0.625,0.1121 0.8125,0.2871 0.375,0.35 0.375,0.9133 0.375,1.7383 l 0,3.1992 0.875,0 0,-3.1992 c 0,-0.825 0,-1.3883 0.375,-1.7383 0.1875,-0.175 0.475,-0.2871 0.8125,-0.2871 0.3375,0 0.625,0.1121 0.8125,0.2871 0.375,0.35 0.375,0.9133 0.375,1.7383 l 0,3.1992 0.875,0 0,-3.1992 c 0,-0.9375 0,-1.7125 -0.625,-2.3125 -0.3375,-0.325 -0.85,-0.5371 -1.4375,-0.5371 -0.7125,0 -1.2875,0.3125 -1.625,0.875 -0.3375,-0.5625 -0.9125,-0.875 -1.625,-0.875 z m 9.04101,0 c -0.8875,0 -1.63906,0.3242 -2.03906,0.8867 -0.45,0.625 -0.44922,1.2008 -0.44922,2.1758 0,0.8125 -3.9e-4,1.5629 0.47461,2.2129 0.4,0.5375 1.08867,0.8496 1.95117,0.8496 0.65,0 1.29922,-0.1375 1.88672,-0.4375 l -0.36328,-0.75 c -0.45,0.2375 -0.98594,0.3613 -1.52344,0.3613 -0.6,0 -1,-0.1859 -1.25,-0.5234 -0.2875,-0.3875 -0.28906,-1.1262 -0.28906,-1.4512 l 1.15039,0 c 0.8875,0 1.42617,0 1.95117,-0.375 0.35,-0.25 0.625,-0.6746 0.625,-1.2246 -0.0125,-0.4875 -0.25,-0.9492 -0.625,-1.2617 -0.375,-0.3 -0.875,-0.4629 -1.5,-0.4629 z m 5.48828,0 c -0.7625,0 -1.29961,0.3242 -1.59961,0.6367 -0.5875,0.6125 -0.58789,1.3379 -0.58789,2.2129 l 0,3.1992 0.875,0 0,-3.1992 c 0,-0.775 7.8e-4,-1.2996 0.36329,-1.6621 0.21249,-0.2125 0.53671,-0.3633 0.94921,-0.3633 0.4125,0 0.73672,0.1508 0.94922,0.3633 0.3625,0.3625 0.36328,0.8871 0.36328,1.6621 l 0,3.1992 0.875,0 0,-3.1992 c 0,-0.875 -3.9e-4,-1.6004 -0.58789,-2.2129 -0.3,-0.3125 -0.83711,-0.6367 -1.59961,-0.6367 z m 9.42774,0 c -0.5125,0 -0.95,0.1113 -1.3125,0.3613 -0.3625,0.25 -0.67578,0.6887 -0.67578,1.2637 0,0.5375 0.28711,0.9879 0.66211,1.2754 0.375,0.2875 0.82461,0.3988 1.22461,0.4863 0.4,0.087 0.71328,0.1633 0.98828,0.3633 0.2,0.15 0.34961,0.3863 0.34961,0.6738 0,0.2125 -0.0867,0.4637 -0.32422,0.6387 -0.2375,0.175 -0.54961,0.2363 -0.91211,0.2363 -0.575,0 -1.15156,-0.1238 -1.66406,-0.3613 l -0.34961,0.75 c 0.6375,0.3 1.33867,0.4375 2.01367,0.4375 0.575,0 1.05,-0.1254 1.4375,-0.4004 0.3875,-0.275 0.67383,-0.7383 0.67383,-1.3008 0,-0.625 -0.34883,-1.0863 -0.73633,-1.3613 -0.35,-0.25 -0.76289,-0.3629 -1.21289,-0.4629 -0.45,-0.1 -0.71289,-0.1633 -0.96289,-0.3633 -0.175,-0.1375 -0.3125,-0.3488 -0.3125,-0.6113 0,-0.275 0.15078,-0.5 0.36328,-0.625 0.2125,-0.125 0.4375,-0.1758 0.75,-0.1758 0.5,0 1.025,0.1246 1.5,0.3496 l 0.32422,-0.7617 c -0.5625,-0.2625 -1.18672,-0.4121 -1.82422,-0.4121 z m -121.09961,0.074 1.26172,4.2129 c 0.275,0.9 0.32617,1.125 0.51367,1.375 0.175,0.225 0.4625,0.3875 0.8125,0.4375 -0.175,0.8125 -0.25078,1.1004 -0.42578,1.2754 -0.1375,0.1375 -0.29961,0.2129 -0.53711,0.2129 -0.1875,0 -0.37422,-0.038 -0.57422,-0.1133 l -0.26367,0.7754 c 0.275,0.1 0.56289,0.1621 0.83789,0.1621 0.525,0 0.95039,-0.2371 1.21289,-0.5371 0.275,-0.3125 0.37422,-0.7 0.51172,-1.3125 l 1.4375,-6.4883 -0.90039,0 -1.125,5.2129 c -0.125,-0.013 -0.24922,-0.038 -0.32422,-0.1504 -0.075,-0.1125 -0.16211,-0.3871 -0.34961,-1.0371 l -1.17578,-4.0254 -0.91211,0 z m 69.50781,0 1.11133,4.5879 c 0.1375,0.575 0.20078,0.9 0.55078,1.1875 0.2,0.1625 0.47461,0.2754 0.78711,0.2754 0.3125,0 0.58711,-0.1129 0.78711,-0.2754 0.35,-0.2875 0.41328,-0.6125 0.55078,-1.1875 l 1.11133,-4.5879 -0.89844,0 -1.08789,4.5 c -0.075,0.325 -0.12617,0.5121 -0.20117,0.5996 -0.0625,0.075 -0.16172,0.125 -0.26172,0.125 -0.1,0 -0.19922,-0.05 -0.26172,-0.125 -0.075,-0.088 -0.12617,-0.2746 -0.20117,-0.5996 l -1.08789,-4.5 -0.89844,0 z m -72.45703,0.75 c 0.475,0 0.8375,0.175 1.0625,0.4375 0.375,0.4375 0.375,1.1262 0.375,1.8262 0,0.6375 0,1.2867 -0.4375,1.7617 -0.275,0.3 -0.7,0.4492 -1.125,0.4492 -0.3875,0 -0.761719,-0.1238 -1.011719,-0.4238 -0.3,-0.3625 -0.300781,-0.9 -0.300781,-1.5625 0,-0.925 0,-1.6133 0.375,-2.0508 0.225,-0.2625 0.5875,-0.4375 1.0625,-0.4375 z m 69.6543,0 c 0.3875,0 0.71328,0.089 0.92578,0.2637 0.1875,0.15 0.31172,0.3992 0.32422,0.6367 0,0.2875 -0.13633,0.5 -0.29883,0.625 -0.2625,0.2 -0.61289,0.1992 -1.40039,0.1992 l -1.15039,0 c 0,-0.25 0,-0.8738 0.3125,-1.2363 0.275,-0.325 0.72461,-0.4883 1.28711,-0.4883 z m 10.8164,0 c 0.3875,0 0.71133,0.089 0.92383,0.2637 0.1875,0.15 0.31367,0.3992 0.32617,0.6367 0,0.2875 -0.13828,0.5 -0.30078,0.625 -0.2625,0.2 -0.61289,0.1992 -1.40039,0.1992 l -1.15039,0 c 0,-0.25 0,-0.8738 0.3125,-1.2363 0.275,-0.325 0.72656,-0.4883 1.28906,-0.4883 z m 8.04102,0 c 0.55,0 0.97461,0.2246 1.22461,0.5996 0.275,0.4125 0.27539,1.0012 0.27539,1.6387 0,0.6375 -3.9e-4,1.2242 -0.27539,1.6367 -0.25,0.375 -0.67461,0.5996 -1.22461,0.5996 -0.55,0 -0.97461,-0.2246 -1.22461,-0.5996 -0.275,-0.4125 -0.27539,-0.9992 -0.27539,-1.6367 0,-0.6375 3.9e-4,-1.2262 0.27539,-1.6387 0.25,-0.375 0.67461,-0.5996 1.22461,-0.5996 z m 5.92187,0 c 0.4625,0 0.8375,0.1621 1.0625,0.4121 0.4,0.45 0.39844,1.0883 0.39844,1.8008 0,0.7 0,1.3867 -0.375,1.8242 -0.225,0.2625 -0.5875,0.4375 -1.0625,0.4375 -0.475,0 -0.8375,-0.175 -1.0625,-0.4375 -0.375,-0.4375 -0.375,-1.1238 -0.375,-2.0488 0,-0.6625 7.8e-4,-1.1871 0.30078,-1.5371 0.2375,-0.2875 0.66328,-0.4512 1.11328,-0.4512 z m 14.69922,0 c 0.3875,0 0.71133,0.089 0.92383,0.2637 0.1875,0.15 0.31367,0.3992 0.32617,0.6367 0,0.2875 -0.13828,0.5 -0.30078,0.625 -0.2625,0.2 -0.61289,0.1992 -1.40039,0.1992 l -1.15039,0 c 0,-0.25 0,-0.8738 0.3125,-1.2363 0.275,-0.325 0.72656,-0.4883 1.28906,-0.4883 z"
       id="text3368"
       inkscape:connector-curvature="0" />
  </g>
</svg>
